<svg xmlns="http://www.w3.org/2000/svg" viewBox="0 0 448 512" fill="white">
  <path d="M224,202a53,53,0,1,0,53,53A53,53,0,0,0,224,202Zm124-41a32,32,0,1,1-32-32A32,32,0,0,1,348,161ZM398.8,80A80.3,80.3,0,0,0,368,49.2C347.6,32.1,318.6,24,288,24H160C129.4,24,100.4,32.1,80,49.2A80.3,80.3,0,0,0,49.2,80C32.1,100.4,24,129.4,24,160V352c0,30.6,8.1,59.6,25.2,80A80.3,80.3,0,0,0,80,462.8C100.4,479.9,129.4,488,160,488H288c30.6,0,59.6-8.1,80-25.2A80.3,80.3,0,0,0,398.8,432c17.1-20.4,25.2-49.4,25.2-80V160C424,129.4,415.9,100.4,398.8,80ZM224,338a84,84,0,1,1,84-84A84,84,0,0,1,224,338Zm88-152a48,48,0,1,1,48-48A48,48,0,0,1,312,186Z"/>
</svg>