<svg xmlns="http://www.w3.org/2000/svg" viewBox="0 0 448 512">
  <path fill="#25D366" d="M380.9 97.1C339 55.2 283.1 32 224.1 32c-119.4 0-216.1 96.7-216.1 216.1 0 38.1 10 75.4 29 108L0 480l124.2-36.4c31.7 17.3 67.6 26.4 104 26.4h.1c119.3 0 216.1-96.7 216.1-216.1 0-59-23.1-114.9-65-156.8zM224.1 438c-30.1 0-59.7-8-85.5-23.1l-6.1-3.6-73.7 21.6 22-71.7-4.4-7c-17.7-28.4-27-61.2-27-94.9 0-99.1 80.7-179.8 179.8-179.8 48 0 93.1 18.7 127.1 52.7s52.7 79.1 52.7 127.1c0 99.1-80.7 179.7-179.8 179.7z"/>
</svg>