<svg xmlns="http://www.w3.org/2000/svg" viewBox="0 0 448 512" fill="white">
  <path d="M380.9 97.1C339 55.2 283.1 32 224.1 32c-119.4 0-216.1 96.7-216.1 216.1 0 38.1 10 75.4 29 108L0 480l124.2-36.4c31.7 17.3 67.6 26.4 104 26.4h.1c119.3 0 216.1-96.7 216.1-216.1 0-59-23.1-114.9-65-156.8zM224.1 438c-30.1 0-59.7-8-85.5-23.1l-6.1-3.6-73.7 21.6 22-71.7-4.4-7c-17.7-28.4-27-61.2-27-94.9 0-99.1 80.7-179.8 179.8-179.8 48 0 93.1 18.7 127.1 52.7s52.7 79.1 52.7 127.1c0 99.1-80.7 179.7-179.8 179.7zm101.1-138.5c-5.5-2.8-32.6-16.1-37.7-17.9-5.1-1.9-8.8-2.8-12.5 2.8-3.7 5.5-14.3 17.9-17.5 21.6-3.2 3.7-6.5 4.2-12 1.4-32.6-16.3-54-29.1-75.4-65.3-5.7-9.8 5.7-9.1 16.3-30.2 1.8-3.7.9-6.9-.5-9.7-1.4-2.8-12.5-30.2-17.1-41.4-4.5-10.8-9.1-9.3-12.5-9.5-3.2-.2-6.9-.2-10.6-.2-3.7 0-9.7 1.4-14.8 6.9-5.1 5.5-19.4 18.9-19.4 46.1s19.9 53.5 22.6 57.2c2.8 3.7 39.1 59.7 94.8 83.6 13.3 5.7 23.6 9.1 31.7 11.6 13.3 4.2 25.4 3.6 35 2.2 10.7-1.6 32.6-13.3 37.2-26.1 4.5-12.8 4.5-23.7 3.2-26.1-1.2-2.4-5-3.8-10.5-6.5z"/>
</svg>